v -216.2500 -188.2864 0.0000
v 216.2500 -188.2864 0.0000
v 216.2500 188.2864 0.0000
v -216.2500 188.2864 0.0000
v -216.2500 -188.2864 35.0000
v 216.2500 -188.2864 35.0000
v 216.2500 188.2864 35.0000
v -216.2500 188.2864 35.0000
v 0.4967 -41.8414 -4.1841
v 28.4967 -41.8414 -4.1841
v 28.4967 41.8414 -4.1841
v 0.4967 41.8414 -4.1841
v 0.4967 -41.8414 79.4987
v 28.4967 -41.8414 79.4987
v 28.4967 41.8414 79.4987
v 0.4967 41.8414 79.4987
v 34.9967 -41.8414 -4.1841
v 62.9967 -41.8414 -4.1841
v 62.9967 41.8414 -4.1841
v 34.9967 41.8414 -4.1841
v 34.9967 -41.8414 79.4987
v 62.9967 -41.8414 79.4987
v 62.9967 41.8414 79.4987
v 34.9967 41.8414 79.4987
f 1 2 3 4
f 5 6 7 8
f 1 2 6 5
f 3 4 8 7
f 2 3 7 6
f 1 4 8 5
f 9 10 11 12
f 13 14 15 16
f 9 10 14 13
f 11 12 16 15
f 10 11 15 14
f 9 12 16 13
f 17 18 19 20
f 21 22 23 24
f 17 18 22 21
f 19 20 24 23
f 18 19 23 22
f 17 20 24 21
